<?xml version="1.0" encoding="UTF-8"?>
<svg id="Layer_1" data-name="Layer 1" xmlns="http://www.w3.org/2000/svg" viewBox="0 0 142.99 28.59">
  <defs>
    <style>
      .cls-1 {
        fill: #fff;
      }
    </style>
  </defs>
  <path class="cls-1" d="M44.2,0h6.65c0,8.64-3.98,13.89-7.33,16.77-4.25,3.63-10.03,5.73-15.93,5.73v-5.31c3.16,0,6.28-.9,8.94-2.49C30.93,12.3,27.58,6.93,27.58,0h6.65c0,5.52,2.63,9.51,6.84,10.5C43.11,7.65,44.2,4.08,44.2,0Z"/>
  <path class="cls-1" d="M81.3,2.19l17.02-.34,.25,12.81c.15,7.5-7.36,13.74-16.75,13.92l-.11-5.31c5.71-.11,10.3-3.92,10.21-8.48l-.15-7.5-10.37,.21-.11-5.31Z"/>
  <path class="cls-1" d="M100.32,1.82l13.64-.27,.11,5.31-3.49,.07,.24,11.88,3.49-.07,.11,5.31-13.64,.27-.11-5.31,3.49-.07-.24-11.88-3.49,.07-.11-5.31Z"/>
  <rect class="cls-1" x="98.37" y="1.83" width="2" height="5.31" transform="translate(-.07 1.97) rotate(-1.14)"/>
  <path class="cls-1" d="M27.13,17.19c-2.52,0-4.66-1.29-5.41-3.09,2.82-1.56,4.7-4.17,4.7-7.11V0H0V4.95H4.32V22.14h6.65v-6.51h4.36c1.62,3.99,6.28,6.87,11.8,6.87h.45v-5.31h-.45Zm-7.37-10.2c0,1.83-1.88,3.33-4.17,3.33h-4.62V4.95h8.79v2.04Z"/>
  <path class="cls-1" d="M53.22,0h-2.99V5.31h4.32V22.5h6.73c1.2,0,2.37-.12,3.5-.33-5.31-6.35-9.26-14.38-11.56-22.17Z"/>
  <path class="cls-1" d="M54.72,2.72c2.45,7.75,6.55,15.7,11.99,21.94,2.46-.5,4.7-1.45,6.56-2.74,.39,2.36,1.05,3.7,1.17,3.88l6.12-2.04,.04,.03s-.94-1.93-1.01-5.38l-.32-16.17-6.65,.13,.2,9.93c.08,3.99-3.91,7.34-8.95,7.44l-.83,.02-.34-17.19-7.98,.16Z"/>
  <path class="cls-1" d="M136.34,7.02c-.49-.45-1.01-.87-1.58-1.29-1.88-1.45-3.99-2.65-6.2-3.58-3.25,3.84-6.14,7.57-8.83,11.06v9.28h6.65V7.23c1.35,.66,2.63,1.41,3.76,2.31,3.98,3.06,6.2,7.2,6.2,11.61v1.35h6.65V0h-6.65V7.02Z"/>
  <path class="cls-1" d="M127.02,3.44c-3.3-1.31-6.81-2.02-10.11-1.95l-3.08,.06,.11,5.31,3.08-.06c.41,0,.83,.01,1.24,.03l.16,7.85c2.62-3.54,5.43-7.33,8.61-11.24Z"/>
</svg>